<svg width="33" height="22" viewBox="0 0 33 22" fill="none" xmlns="http://www.w3.org/2000/svg">
<path d="M13.2687 0.824525C13.7697 0.824525 14.1992 1.00347 14.5571 1.36135C14.8434 1.71924 14.9865 2.14871 14.9865 2.64975C14.9865 3.22237 14.8792 3.79499 14.6644 4.3676L8.97404 19.0767C8.61615 19.7925 8.25827 20.3651 7.90038 20.7946C7.47092 21.2956 6.79093 21.5462 5.86043 21.5462L2.31735 21.5462C1.74473 21.5462 1.31527 21.3314 1.02896 20.902C0.671071 20.4725 0.563705 19.8999 0.70686 19.1841L3.06891 3.93814C3.14049 3.07921 3.4268 2.32765 3.92784 1.68345C4.42888 1.11083 5.18044 0.824524 6.18253 0.824524L13.2687 0.824525ZM30.4472 0.824526C30.9483 0.824526 31.3777 1.00347 31.7356 1.36136C32.0219 1.71924 32.1651 2.14871 32.1651 2.64975C32.1651 3.22237 32.0577 3.79499 31.843 4.3676L26.1526 19.0767C25.7947 19.7925 25.401 20.3651 24.9716 20.7946C24.5421 21.2956 23.8979 21.5462 23.039 21.5462H19.4959C18.9233 21.5462 18.4938 21.3314 18.2075 20.902C17.8496 20.4725 17.7423 19.8999 17.8854 19.1841L20.2475 3.93814C20.319 3.07921 20.6054 2.32765 21.1064 1.68345C21.6074 1.11084 22.3232 0.824525 23.2537 0.824525L30.4472 0.824526Z" fill="#091242"/>
</svg>
